#!OML:ASF E:\Steps\Project 1\Capture day 1\Session 2\Subject.ASF
:FULLY-SPECIFIED
:DEGREES
415
root 8.78269 16.2798 7.97021 -159.673 -2.47296 178.543
lowerback -21.6932 -4.27387 -5.35392
upperback 1.58925 -4.43441 0.452237
thorax 14.5282 -2.49371 2.05014
lowerneck -1.08192 -2.54328 -2.3835
upperneck 19.0699 -2.76731 4.29478
head 6.03058 -0.711611 1.66038
rclavicle -7.25564e-015 -1.31198e-014
rhumerus -45.7269 -24.7531 -66.2124
rradius 26.8713
rwrist 7.88633
rhand -6.66568 -54.9298
rfingers 7.12502
rthumb 19.1923 -84.0029
lclavicle -7.25564e-015 -1.31198e-014
lhumerus -22.6578 -1.31759 80.6776
lradius 36.4481
lwrist 1.57782
lhand -23.1159 -14.4597
lfingers 7.12502
lthumb 3.33119 15.494
rfemur -44.1048 3.9049 15.4985
rtibia 25.5617
rfoot -14.7846 -8.73355
rtoes -42.6303
lfemur -19.3317 -7.96137 -24.0442
ltibia 11.3084
lfoot -8.58556 -3.46133
ltoes -27.8179
416
root 8.79066 16.2681 7.86899 -159.613 -2.74591 178.531
lowerback -22.2426 -4.54479 -5.45028
upperback 1.4573 -4.7762 0.661176
thorax 14.7515 -2.6684 2.19409
lowerneck 0.124593 -2.32038 -2.88177
upperneck 18.6667 -2.41602 4.45098
head 5.69226 -0.565967 1.81881
rclavicle -2.93207e-014 -1.27222e-014
rhumerus -46.2161 -24.1087 -65.8706
rradius 26.65
rwrist 7.87267
rhand -6.80016 -55.055
rfingers 7.12502
rthumb 19.063 -84.1408
lclavicle -2.93207e-014 -1.27222e-014
lhumerus -23.1119 -1.26365 80.8412
lradius 37.1762
lwrist 1.69932
lhand -23.0844 -14.82
lfingers 7.12502
lthumb 3.36162 15.1332
rfemur -43.6511 4.00381 15.4734
rtibia 23.5506
rfoot -14.5714 -8.16606
rtoes -42.9274
lfemur -19.0125 -7.91928 -24.0471
ltibia 11.371
lfoot -8.76991 -3.73252
ltoes -27.8139
417
root 8.80313 16.26 7.77962 -159.521 -3.05075 178.545
lowerback -22.0812 -4.40094 -5.32555
upperback 1.73991 -4.59406 0.571526
thorax 14.9589 -2.57194 2.08628
lowerneck -1.41337 -2.51826 -2.31847
upperneck 19.1239 -2.74468 4.2527
head 6.10255 -0.701085 1.63471
rclavicle -7.95139e-015 9.14409e-015
rhumerus -46.1001 -25.7115 -65.4865
rradius 26.2165
rwrist 8.69348
rhand -7.16091 -54.607
rfingers 7.12502
rthumb 18.7161 -83.7266
lclavicle -7.95139e-015 9.14409e-015
lhumerus -21.9642 -2.18284 80.8485
lradius 37.6839
lwrist 1.83478
lhand -22.898 -14.9045
lfingers 7.12502
lthumb 3.54157 15.0459
rfemur -43.1695 4.23465 15.4099
rtibia 21.5336
rfoot -14.2173 -7.80706
rtoes -43.0533
lfemur -18.8706 -7.75732 -23.9362
ltibia 11.5458
lfoot -9.04823 -4.1771
ltoes -28.6518
418
root 8.8158 16.2532 7.687 -159.554 -3.33025 178.395
lowerback -21.9526 -4.3134 -5.38818
upperback 1.88021 -4.43839 0.413947
thorax 15.0284 -2.49931 1.9991
lowerneck -1.93956 -2.78776 -1.80822
upperneck 19.2804 -3.15717 4.16388
head 6.24832 -0.868988 1.49245
rclavicle 6.06293e-015 -1.07344e-014
rhumerus -46.4343 -26.7867 -65.199
rradius 26.0121
rwrist 9.33477
rhand -7.14975 -54.1258
rfingers 7.12502
rthumb 18.7268 -83.2444
lclavicle 6.06293e-015 -1.07344e-014
lhumerus -21.3478 -3.10277 80.7897
lradius 38.1795
lwrist 1.74754
lhand -23.0792 -14.6804
lfingers 7.12502
lthumb 3.36658 15.2728
rfemur -42.4227 4.41647 15.1967
rtibia 19.5747
rfoot -13.6451 -7.66898
rtoes -42.9216
lfemur -18.5247 -7.68302 -24.0316
ltibia 11.6777
lfoot -9.3678 -4.56594
ltoes -29.6726
419
root 8.82719 16.2434 7.58835 -159.709 -3.46026 178.193
lowerback -22.0015 -4.65176 -5.72147
upperback 1.54246 -4.85067 0.648378
thorax 14.7454 -2.72237 2.31693
lowerneck -0.345825 -2.57492 -2.63689
upperneck 19.0381 -2.73486 4.23544
head 5.89641 -0.704904 1.69309
rclavicle 1.08338e-014 -1.82882e-014
rhumerus -47.1151 -25.5334 -64.8607
rradius 25.8818
rwrist 9.05098
rhand -7.14486 -54.131
rfingers 7.12502
rthumb 18.7315 -83.2491
lclavicle 1.08338e-014 -1.82882e-014
lhumerus -22.3208 -2.46006 81.0117
lradius 38.7632
lwrist 1.40577
lhand -23.1299 -15.4682
lfingers 7.12502
lthumb 3.31767 14.4857
rfemur -41.5891 4.55303 15.0424
rtibia 18.0417
rfoot -13.1027 -7.66577
rtoes -43.0902
lfemur -17.9766 -7.70477 -24.2427
ltibia 11.769
lfoot -9.63245 -4.72496
ltoes -29.6701
420
root 8.83856 16.231 7.48841 -159.799 -3.55788 178.134
lowerback -22.0597 -4.58857 -5.67432
upperback 1.87803 -4.74521 0.595522
thorax 15.1626 -2.67135 2.25204
lowerneck -1.76379 -2.66776 -2.42596
upperneck 19.6308 -2.88577 4.06409
head 6.32916 -0.768831 1.58633
rclavicle 2.5842e-015 3.57812e-015
rhumerus -46.7076 -26.2499 -64.883
rradius 25.5087
rwrist 9.0813
rhand -7.45546 -54.4276
rfingers 7.12502
rthumb 18.4327 -83.5743
lclavicle 2.5842e-015 3.57812e-015
lhumerus -21.3759 -2.70689 80.9743
lradius 39.1042
lwrist 1.4234
lhand -22.8647 -16.3201
lfingers 7.12502
lthumb 3.57379 13.6297
rfemur -40.9521 4.76692 15.0506
rtibia 16.9425
rfoot -12.9187 -7.69981
rtoes -42.9298
lfemur -17.5814 -7.90716 -24.2745
ltibia 12.0121
lfoot -9.98772 -4.6218
ltoes -28.9176
421
root 8.85046 16.2191 7.38896 -159.795 -3.76046 178.153
lowerback -22.1644 -4.37694 -5.5082
upperback 1.93045 -4.47377 0.400178
thorax 15.2261 -2.52581 2.02418
lowerneck -1.75496 -2.61763 -1.3044
upperneck 19.561 -2.78688 3.41614
head 6.2768 -0.686572 1.19701
rclavicle -1.86858e-014 -1.35174e-014
rhumerus -47.3647 -27.2411 -64.5258
rradius 25.4629
rwrist 9.47372
rhand -7.11988 -54.5897
rfingers 7.12502
rthumb 18.7555 -83.7055
lclavicle -1.86858e-014 -1.35174e-014
lhumerus -21.1491 -3.95901 80.854
lradius 39.6974
lwrist 1.50497
lhand -23.2096 -15.8986
lfingers 7.12502
lthumb 3.24065 14.0565
rfemur -40.4308 4.87125 15.1947
rtibia 16.0221
rfoot -12.6935 -7.76432
rtoes -42.0636
lfemur -17.4325 -8.18344 -24.1731
ltibia 12.5355
lfoot -10.5366 -4.47941
ltoes -28.6101
